<svg width="26" height="22" viewBox="0 0 26 22" fill="none" xmlns="http://www.w3.org/2000/svg">
<path d="M20.4716 14.2771V17.0452C20.4716 18.9305 18.9455 20.4567 17.0602 20.4567H4.53647C2.65119 20.4567 1.125 18.9305 1.125 17.0452V4.53647C1.125 2.65119 2.65119 1.125 4.53647 1.125H12.2721" stroke="#33425B" stroke-width="2" stroke-miterlimit="10" stroke-linecap="round"/>
<path d="M12.1079 15.2494V12.4365C12.1079 8.89034 14.9807 6.00256 18.5418 6.00256H20.6516" stroke="#624AF1" stroke-width="2" stroke-miterlimit="10" stroke-linecap="round"/>
<path d="M24.7215 5.13474L21.3399 2.33673C20.6067 1.72326 19.4995 2.24696 19.4995 3.20456V8.78561C19.4995 9.74322 20.6067 10.2669 21.3399 9.65344L24.7215 6.85544C25.2601 6.40656 25.2601 5.56865 24.7215 5.11977V5.13474Z" fill="#624AF1"/>
</svg>
